<svg width="48" height="48" viewBox="0 0 48 48" fill="none" xmlns="http://www.w3.org/2000/svg">
<rect width="48" height="48" rx="8" fill="#4D409B"/>
<path d="M30.6673 36V33.3333C30.6673 31.9188 30.1054 30.5623 29.1052 29.5621C28.105 28.5619 26.7485 28 25.334 28H14.6673C13.2528 28 11.8963 28.5619 10.8961 29.5621C9.89589 30.5623 9.33398 31.9188 9.33398 33.3333V36" stroke="white" stroke-width="2" stroke-linecap="round" stroke-linejoin="round"/>
<path d="M19.9993 22.6667C22.9449 22.6667 25.3327 20.2789 25.3327 17.3333C25.3327 14.3878 22.9449 12 19.9993 12C17.0538 12 14.666 14.3878 14.666 17.3333C14.666 20.2789 17.0538 22.6667 19.9993 22.6667Z" stroke="white" stroke-width="2" stroke-linecap="round" stroke-linejoin="round"/>
<path d="M38.666 36V33.3333C38.6651 32.1516 38.2718 31.0037 37.5478 30.0698C36.8238 29.1358 35.8102 28.4688 34.666 28.1733" stroke="white" stroke-width="2" stroke-linecap="round" stroke-linejoin="round"/>
<path d="M29.334 12.1733C30.4812 12.4671 31.498 13.1343 32.2242 14.0698C32.9503 15.0052 33.3444 16.1558 33.3444 17.34C33.3444 18.5242 32.9503 19.6748 32.2242 20.6103C31.498 21.5457 30.4812 22.2129 29.334 22.5067" stroke="white" stroke-width="2" stroke-linecap="round" stroke-linejoin="round"/>
</svg>
