<svg width="20" height="21" viewBox="0 0 20 21" fill="none" xmlns="http://www.w3.org/2000/svg">
<path d="M19 10.1362C19 8.29158 18.3985 6.57935 17.3765 5.17333C17.6668 4.89154 17.8972 4.55653 18.0546 4.18752C18.212 3.81851 18.2932 3.42277 18.2935 3.02302C18.2935 1.3523 16.9185 0 15.219 0C13.97 0 12.8935 0.735977 12.414 1.79086C11.6275 1.58059 10.8155 1.4748 10 1.47635C9.1675 1.47635 8.36 1.58379 7.5945 1.79086C7.35429 1.25972 6.96136 0.808122 6.46343 0.490909C5.9655 0.173697 5.38399 0.0045148 4.7895 0.00390698C3.09001 0.00390698 1.71451 1.3567 1.71451 3.02693C1.71451 3.86693 2.06401 4.62781 2.62751 5.17333C1.56704 6.62215 0.997892 8.35906 1.00001 10.1401C1.00001 12.4232 1.92101 14.5032 3.42251 16.0494L3.43101 16.0582C3.62001 16.2525 3.82201 16.4425 4.03201 16.6203L7.401 19.78L8.196 19.0192L9.958 21L11.762 18.9733L12.603 19.7757L15.9805 16.6125C16.1825 16.4386 16.3755 16.2564 16.5605 16.0665L16.5775 16.0499C18.079 14.4993 19 12.4193 19 10.1362ZM6.093 7.24988C5.954 7.07602 5.9165 6.89386 5.958 6.741C6.0005 6.58765 6.1265 6.4514 6.337 6.36837C6.547 6.28584 6.825 6.26093 7.115 6.33956C7.405 6.41819 7.6365 6.57153 7.775 6.7493C7.91 6.92267 7.9475 7.10484 7.9055 7.2577C7.8635 7.41056 7.7375 7.5473 7.5315 7.62984C7.321 7.71286 7.0435 7.73728 6.7535 7.65914C6.4635 7.58051 6.232 7.42716 6.093 7.2494V7.24988ZM12.313 12.3778C11.863 12.5966 11.333 12.7245 10.946 12.9565C10.8115 13.0347 10.6895 13.126 10.5805 13.2378C10.4795 13.337 10.139 13.7135 10.3195 14.2302C10.5045 14.7596 11.0975 15.119 11.7745 15.1273C11.8795 15.1273 11.964 15.2143 11.9595 15.3178C11.9596 15.342 11.9548 15.3659 11.9453 15.3882C11.9359 15.4105 11.9219 15.4308 11.9043 15.4478C11.8867 15.4647 11.8658 15.4781 11.8428 15.4871C11.8198 15.496 11.7952 15.5004 11.7705 15.5H11.7665C10.9675 15.4873 10.265 15.0653 9.9915 14.4368C9.731 15.0902 9.016 15.5327 8.2 15.541H8.196C8.14623 15.5414 8.09833 15.5225 8.0628 15.4884C8.02728 15.4543 8.00703 15.4079 8.0065 15.3593C8.00644 15.3104 8.0256 15.2634 8.06004 15.228C8.09447 15.1925 8.14154 15.1713 8.1915 15.1688C8.8685 15.1605 9.4535 14.8011 9.6465 14.2717C9.7395 14.0192 9.731 13.6554 9.327 13.2378C9.21721 13.1282 9.09275 13.0336 8.957 12.9565C8.57 12.725 7.973 12.6215 7.582 12.3734C7.216 12.0921 6.997 11.7449 6.997 11.3683C6.997 11.3478 6.997 11.3229 7.0015 11.3024C7.0605 10.4009 8.3555 9.681 9.9455 9.681C11.5055 9.681 12.78 10.372 12.8855 11.2487C12.8895 11.2858 12.8935 11.3268 12.8935 11.3683C12.8975 11.7493 12.6745 12.1995 12.3135 12.3773L12.313 12.3778ZM13.953 7.25379C13.8145 7.42716 13.5875 7.58442 13.293 7.66305C13.003 7.74119 12.7255 7.71677 12.515 7.63374C12.305 7.55121 12.1785 7.41495 12.1365 7.26209C12.0945 7.10874 12.1325 6.92707 12.271 6.75321C12.41 6.57935 12.637 6.42258 12.931 6.34395C13.2215 6.26533 13.499 6.29023 13.7095 6.37326C13.9195 6.4553 14.046 6.59205 14.088 6.74491C14.13 6.89777 14.092 7.07993 13.953 7.25379Z" fill="#333C57"/>
</svg>
