<svg width="20" height="20" viewBox="0 0 20 20" fill="none" xmlns="http://www.w3.org/2000/svg">
<g clip-path="url(#clip0_2361_9895)">
<mask id="mask0_2361_9895" style="mask-type:luminance" maskUnits="userSpaceOnUse" x="0" y="0" width="20" height="20">
<path d="M20 0H0V20H20V0Z" fill="white"/>
</mask>
<g mask="url(#mask0_2361_9895)">
<path d="M12.354 9.54341H6.4453V7.20526H12.354C12.6992 7.20526 12.9391 7.26542 13.0596 7.37047C13.18 7.47553 13.2546 7.67038 13.2546 7.95502V8.79456C13.2546 9.09445 13.18 9.2893 13.0596 9.39436C12.9391 9.49941 12.6992 9.54432 12.354 9.54432V9.54341ZM12.7594 5.00089H3.93945V15H6.4453V11.7469H11.0633L13.2546 15H16.0607L13.6447 11.7316C14.5354 11.5996 14.9354 11.3267 15.2652 10.8768C15.5951 10.427 15.7605 9.70773 15.7605 8.74786V7.99812C15.7605 7.42883 15.7002 6.97899 15.5951 6.6342C15.4899 6.28939 15.3102 5.9895 15.0549 5.72012C14.7853 5.46512 14.4851 5.28553 14.1247 5.16521C13.7642 5.06017 13.3139 5 12.7594 5V5.00089Z" fill="#333C57"/>
<path d="M30 4.76837e-06C30 5.52285 25.5229 10 20 10C18.8771 10 17.7976 9.81494 16.79 9.47365C16.8115 9.23602 16.8211 8.99305 16.8211 8.74786V7.99812C16.8211 7.36152 16.7545 6.80036 16.6095 6.32479C16.453 5.81194 16.1848 5.37058 15.8247 4.99061L15.8047 4.96951L15.7836 4.94955C15.4 4.58668 14.9651 4.32765 14.4604 4.15918L14.441 4.15271L14.4214 4.14699C13.941 4.00697 13.3865 3.93939 12.7593 3.93939H11.6987V3.94029H10.8062C10.2873 2.73117 10 1.39914 10 4.76837e-06C10 -5.52285 14.4772 -10 20 -10C25.5229 -10 30 -5.52285 30 4.76837e-06Z" fill="#333C57"/>
</g>
<path d="M19.8493 0.151367H0.152344V19.8483H19.8493V0.151367Z" stroke="#333C57" stroke-width="2"/>
</g>
<defs>
<clipPath id="clip0_2361_9895">
<rect width="20" height="20" fill="white"/>
</clipPath>
</defs>
</svg>
