<svg xmlns="http://www.w3.org/2000/svg" width="20" height="20" viewBox="0 0 20 20">
  <path fill-rule="evenodd" clip-rule="evenodd" d="M11.6667 19.8617C11.1247 19.9527 10.5679 20 10 20C4.47715 20 0 15.5228 0 10C0 4.47715 4.47715 0 10 0C15.5228 0 20 4.47715 20 10C20 10.5679 19.9527 11.1247 19.8617 11.6667H13.9138C14.2149 9.89329 14.5353 7.84999 14.6352 6.80051C14.6484 6.66197 14.6318 6.48467 14.6185 6.40684C14.6051 6.32901 14.5773 6.21812 14.4761 6.13603C14.3563 6.03881 14.1714 6.01831 14.0886 6.01976C13.7125 6.02639 13.1355 6.22704 10.3584 7.38214C9.38571 7.78669 7.44178 8.62402 4.52658 9.89413C4.05319 10.0824 3.80521 10.2665 3.78264 10.4466C3.74449 10.7509 4.12559 10.8708 4.64456 11.034C4.71515 11.0562 4.7883 11.0792 4.86328 11.1035C5.37386 11.2695 6.06069 11.4637 6.41774 11.4714C6.74162 11.4784 7.10311 11.3449 7.5022 11.0708C10.226 9.2322 11.632 8.30287 11.7203 8.28284C11.7825 8.2687 11.8688 8.25093 11.9273 8.3029C11.9858 8.35487 11.98 8.45329 11.9738 8.4797C11.9361 8.64065 10.4401 10.0314 9.66594 10.7512C9.42459 10.9755 9.25339 11.1347 9.2184 11.1711C9.14001 11.2525 9.06012 11.3295 8.98334 11.4035L8.98332 11.4035C8.50897 11.8608 8.15326 12.2037 9.00301 12.7637C9.41136 13.0328 9.73813 13.2553 10.0641 13.4773L10.0642 13.4774C10.4202 13.7198 10.7753 13.9616 11.2347 14.2627C11.3517 14.3395 11.4635 14.4192 11.5724 14.4968C11.6041 14.5194 11.6355 14.5417 11.6667 14.5638V19.8617Z" fill="#333C57"/>
  <path d="M17.4494 19.9469C19.7387 18.1014 19.7378 15.2311 17.4494 13.3863C17.3633 13.3169 17.2176 13.3155 17.1283 13.3826L16.6538 13.7393C16.5685 13.8032 16.5667 13.9062 16.6485 13.9726C18.516 15.4926 18.5164 17.8403 16.6485 19.3606C16.5667 19.4271 16.5687 19.53 16.6538 19.594L17.1283 19.9506C17.2176 20.0176 17.3633 20.0163 17.4494 19.9469ZM15.8633 18.7777C17.2873 17.5771 17.2858 15.7547 15.8633 14.5554C15.7781 14.4836 15.6302 14.4813 15.5399 14.5495L15.0651 14.9082C14.9824 14.9707 14.9768 15.0714 15.0539 15.1379C16.0677 16.0124 16.0655 17.3227 15.0539 18.1951C14.9768 18.2617 14.9822 18.3623 15.0651 18.4248L15.5399 18.7836C15.6302 18.8519 15.7783 18.8495 15.8633 18.7777Z" fill="#333C57"/>
  <circle cx="14.1673" cy="16.6666" r="0.833333" fill="#333C57"/>
</svg>