<svg xmlns="http://www.w3.org/2000/svg" width="20" height="20" viewBox="0 0 20 20" fill="none">
  <path fill-rule="evenodd" clip-rule="evenodd" d="M18.3857 0C18.8371 0 19.219 0.147619 19.5314 0.442857C19.8438 0.738095 20 1.11143 20 1.56286V18.281C20 18.7324 19.8438 19.1324 19.5314 19.479C19.219 19.8267 18.8362 20 18.3857 20H1.71905C1.26762 20 0.867619 19.8267 0.520952 19.479C0.173333 19.1333 0 18.7333 0 18.281V1.56286C0 1.11143 0.164762 0.738095 0.495238 0.442857C0.824762 0.147619 1.23238 0 1.71905 0H18.3857ZM16.9255 5C16.9255 5 16.8573 7.71068 13.7335 9.99037C14.0707 10.1292 16.4816 11.3529 17.5 14.9807H14.8011C14.8011 14.9807 14.2344 11.9235 11.0479 11.396V14.9807C11.0479 14.9807 2.80316 15.902 2.5 5H5.08345C5.08345 5 5.05718 10.8394 8.58296 11.9081V5H11.0479V8.94109C11.0479 8.94109 13.4139 8.688 14.5045 5H16.9255Z" fill="#333C57"/>
</svg>