<svg width="20" height="20" viewBox="0 0 20 20" fill="none" xmlns="http://www.w3.org/2000/svg">
<g clip-path="url(#clip0_2317_14380)">
<path d="M10 2.49805C10.0014 2.49805 16.2498 2.49879 17.8135 2.94629C18.2382 3.06955 18.6252 3.30919 18.9355 3.6416C19.2459 3.97405 19.469 4.38788 19.582 4.84082C19.9973 6.50133 20 9.95101 20 9.99805C20 9.99805 20.0001 13.4843 19.582 15.1562C19.469 15.6092 19.2459 16.023 18.9355 16.3555C18.6252 16.6879 18.2382 16.9275 17.8135 17.0508C16.2498 17.4983 10.0014 17.498 10 17.498C10 17.498 3.75033 17.4983 2.18652 17.0508C1.7618 16.9275 1.37475 16.6879 1.06445 16.3555C0.754143 16.023 0.531042 15.6092 0.417969 15.1562C-0.000118859 13.4843 0 9.99805 0 9.99805C1.93623e-05 9.95101 0.00273726 6.50133 0.417969 4.84082C0.531042 4.38788 0.754143 3.97405 1.06445 3.6416C1.37475 3.30919 1.7618 3.06955 2.18652 2.94629C3.75033 2.49874 10 2.49805 10 2.49805ZM8.33301 13.333L13.333 10L8.33301 6.66699V13.333Z" fill="#333C57"/>
</g>
<defs>
<clipPath id="clip0_2317_14380">
<rect width="20" height="20" fill="white"/>
</clipPath>
</defs>
</svg>
