<svg width="239" height="95" viewBox="0 0 239 95" fill="none" xmlns="http://www.w3.org/2000/svg">
<path d="M102.497 52.8277L102.671 53.8124L102.497 52.8277ZM97.0863 90.9882L96.9012 91.9709L97.0863 90.9882ZM237.935 52.7525C237.894 52.2017 237.414 51.789 236.863 51.8305L227.888 52.5076C227.338 52.5492 226.925 53.0293 226.966 53.58C227.008 54.1308 227.488 54.5435 228.039 54.502L236.016 53.9001L236.618 61.8774C236.66 62.4281 237.14 62.8409 237.691 62.7993C238.241 62.7578 238.654 62.2777 238.612 61.7269L237.935 52.7525ZM0.938141 14.3138L4.58956e-06 14.66C6.70306 32.8206 36.6407 65.4785 102.671 53.8124L102.497 52.8277L102.323 51.8429C37.1594 63.3559 8.21496 31.1408 1.87628 13.9675L0.938141 14.3138ZM102.497 52.8277L102.671 53.8124C123.255 50.1757 136.623 44.2329 144.303 37.5203C152.02 30.7761 154.05 23.1772 151.669 16.4956C149.319 9.89985 142.773 4.50581 133.985 1.83483C125.172 -0.84424 113.997 -0.827842 102.155 3.48054L102.497 4.42028L102.839 5.36002C114.306 1.18827 125.035 1.20467 133.404 3.74838C141.799 6.30019 147.713 11.3517 149.785 17.167C151.827 22.8964 150.242 29.674 142.987 36.0144C135.696 42.3863 122.737 48.2362 102.323 51.8429L102.497 52.8277ZM102.497 4.42028L102.155 3.48054C78.5371 12.0733 63.5966 31.5 61.373 50.1901C60.2594 59.5502 62.3391 68.7396 68.1485 76.2341C73.9571 83.7276 83.4198 89.432 96.9012 91.9709L97.0863 90.9882L97.2714 90.0055C84.1603 87.5363 75.1761 82.0357 69.7292 75.0088C64.2831 67.9829 62.2989 59.3363 63.359 50.4264C65.4827 32.5767 79.84 13.7275 102.839 5.36002L102.497 4.42028ZM97.0863 90.9882L96.9012 91.9709C121.025 96.514 150.526 93.4866 176.791 86.0643C203.024 78.6511 226.254 66.7895 237.696 53.4796L236.938 52.8277L236.18 52.1758C225.122 65.0382 202.352 76.7628 176.247 84.1397C150.175 91.5075 121 94.4742 97.2714 90.0055L97.0863 90.9882Z" fill="#4D409B"/>
</svg>
