<svg width="32" height="32" viewBox="0 0 32 32" fill="none" xmlns="http://www.w3.org/2000/svg">
<path fill-rule="evenodd" clip-rule="evenodd" d="M16.1627 26C10.55 26 6 21.5228 6 16C6 10.4772 10.55 6 16.1627 6C19.9184 6 23.2278 8.05528 24.9871 11.0365L20.9651 13.3228C20.0173 11.6557 18.2422 10.5475 16.1627 10.5475C13.1024 10.5475 10.6216 12.9887 10.6216 16C10.6216 19.0113 13.1024 21.4525 16.1627 21.4525C18.2285 21.4525 20.0303 20.34 20.9832 18.6908L25 20.9413C23.2515 23.9627 19.9489 26 16.1627 26Z" stroke="#4D409B" stroke-width="2" stroke-linejoin="round"/>
<path d="M29.4597 15.398L29.2564 16.4574H30.3724V17.398H29.0877L28.7546 19.2519H27.803L28.1404 17.398H27.3013L26.9725 19.2519H26.0426L26.3626 17.398H25.3332V16.4574H26.5313L26.7346 15.398H25.6446V14.4437H26.8947L27.2277 12.5852H28.175L27.842 14.4437H28.6984L29.0358 12.5852H29.9658L29.6284 14.4437H30.6665V15.398H29.4597ZM27.47 16.4574H28.3178L28.5211 15.398H27.6733L27.47 16.4574Z" fill="#4D409B"/>
</svg>
