<svg width="28" height="28" viewBox="0 0 28 28" fill="none" xmlns="http://www.w3.org/2000/svg">
<path d="M26.7841 8.16663L17.7816 16.0423C16.7778 16.9183 15.4178 17.4102 14 17.4102C12.5822 17.4102 11.2223 16.9183 10.2184 16.0423L1.21587 8.16663C1.20089 8.31445 1.16667 8.44824 1.16667 8.59512V19.8221C1.16837 21.0623 1.73228 22.2512 2.73471 23.1282C3.73714 24.0052 5.09624 24.4985 6.51389 24.5H21.4861C22.9038 24.4985 24.2629 24.0052 25.2653 23.1282C26.2677 22.2512 26.8316 21.0623 26.8333 19.8221V8.59512C26.8333 8.44824 26.7991 8.31445 26.7841 8.16663Z" fill="#E9E6FD"/>
<path d="M16.1994 14.3435L25.6667 5.76431C25.208 5.07527 24.5612 4.50493 23.7885 4.10832C23.0159 3.71171 22.1434 3.5022 21.2554 3.5H6.74461C5.85657 3.5022 4.98414 3.71171 4.21147 4.10832C3.43879 4.50493 2.79195 5.07527 2.33333 5.76431L11.8006 14.3435C12.3847 14.8707 13.1756 15.1667 14 15.1667C14.8244 15.1667 15.6153 14.8707 16.1994 14.3435Z" fill="#E9E6FD"/>
</svg>
