<svg width="32" height="32" viewBox="0 0 32 32" fill="none" xmlns="http://www.w3.org/2000/svg">
<path d="M14.1754 3.74561C15.1694 2.75213 16.7809 2.75176 17.775 3.74561L28.2545 14.2241C29.2484 15.2181 29.2482 16.8306 28.2545 17.8247L17.8239 28.2554C16.8295 29.2487 15.2183 29.2489 14.2242 28.2544L3.74573 17.7769H3.74475C2.75053 16.7826 2.7514 15.1707 3.74475 14.1763L11.6373 6.28369L11.9996 5.92236L14.1754 3.74658V3.74561ZM15.736 20.3472C15.6375 20.3875 15.5432 20.4482 15.4606 20.5308C15.1341 20.8578 15.1333 21.3882 15.4615 21.7173L15.525 21.7749C15.8539 22.0432 16.3396 22.0241 16.6471 21.7173C16.9756 21.3884 16.9756 20.8573 16.6481 20.5298C16.5834 20.4651 16.5075 20.4127 16.4244 20.3716L16.0856 20.2026L15.736 20.3472ZM21.6442 15.5327C21.4127 15.301 21.0762 15.2327 20.778 15.3354L20.4186 15.4585L20.275 15.8081C20.1495 16.1131 20.2124 16.4746 20.4576 16.7202H20.4567C20.7852 17.0485 21.3159 17.048 21.6442 16.7202C21.9723 16.3917 21.9717 15.8613 21.6442 15.5337V15.5327ZM16.6481 10.5366C16.4171 10.3056 16.0833 10.2362 15.7867 10.3364L15.4254 10.4585L15.2809 10.8052C15.1684 11.0749 15.2024 11.3869 15.3776 11.6255L15.4615 11.7231L15.4625 11.7241C15.5436 11.8054 15.6357 11.8657 15.736 11.9067L15.8688 11.9604V10.5317L16.819 11.4819L16.8463 11.4038C16.949 11.1065 16.8805 10.7694 16.6481 10.5366Z" stroke="#4D409B" stroke-width="2"/>
</svg>
