<svg width="32" height="32" viewBox="0 0 32 32" fill="none" xmlns="http://www.w3.org/2000/svg">
<path d="M24.07 9.23581C25.1881 11.0212 25.8462 13.1955 25.8462 15.5378C25.8462 18.437 24.8386 21.0783 23.1959 23.0473L23.1773 23.0684C22.9749 23.3096 22.7638 23.5409 22.5428 23.7617L18.8478 27.7784L17.9277 26.7595L15.9541 29.3332L14.0264 26.8178L13.1567 27.784L9.47094 23.7716C9.24119 23.5459 9.0202 23.3046 8.81343 23.0578L8.80413 23.0467C7.16147 21.0832 6.15388 18.442 6.15388 15.5428C6.15156 13.2812 6.77422 11.0756 7.93439 9.23581C7.31791 8.54309 6.93555 7.57689 6.93555 6.51022C6.93555 4.38929 8.44037 2.67147 10.2997 2.67147C10.95 2.67224 11.5862 2.88707 12.131 3.28988C12.6757 3.69269 13.1056 4.26615 13.3684 4.94061C14.2058 4.67767 15.0893 4.54123 16 4.54123C16.8922 4.53927 17.7805 4.6736 18.641 4.94061C19.1656 3.60108 20.3433 2.6665 21.7097 2.6665C23.569 2.6665 25.0733 4.38371 25.0733 6.50526C25.0729 7.01287 24.9841 7.5154 24.8119 7.98399C24.6397 8.45257 24.3876 8.87799 24.07 9.23581Z" stroke="#4D409B" stroke-width="2" stroke-linejoin="round"/>
<ellipse cx="2.03166" cy="1.67473" rx="2.03166" ry="1.67473" transform="matrix(0.847822 0.530281 -0.470317 0.882497 11.4214 8.98193)" fill="#4D409B"/>
<ellipse cx="2.03166" cy="1.72031" rx="2.03166" ry="1.72031" transform="matrix(-0.847822 0.530281 0.470317 0.882497 20.4457 8.90186)" fill="#4D409B"/>
</svg>
