<svg width="32" height="32" viewBox="0 0 32 32" fill="none" xmlns="http://www.w3.org/2000/svg">
<path d="M24.07 9.23605C25.1881 11.0215 25.8461 13.1957 25.8461 15.5381C25.8461 18.4373 24.8385 21.0785 23.1959 23.0475L23.1773 23.0686C22.9749 23.3098 22.7637 23.5412 22.5427 23.7619L18.8477 27.7787L17.9276 26.7598L15.954 29.3334L14.0264 26.8181L13.1566 27.7843L9.47087 23.7719C9.24113 23.5461 9.02014 23.3049 8.81337 23.0581L8.80407 23.0469C7.1614 21.0835 6.15382 18.4423 6.15382 15.543C6.1515 13.2814 6.77416 11.0758 7.93433 9.23605C7.31785 8.54334 6.93549 7.57714 6.93549 6.51047C6.93549 4.38954 8.44031 2.67171 10.2996 2.67171C10.95 2.67248 11.5861 2.88732 12.1309 3.29012C12.6756 3.69293 13.1055 4.26639 13.3683 4.94086C14.2058 4.67791 15.0892 4.54148 16 4.54148C16.8921 4.53951 17.7804 4.67385 18.6409 4.94086C19.1655 3.60132 20.3432 2.66675 21.7096 2.66675C23.5689 2.66675 25.0732 4.38396 25.0732 6.50551C25.0728 7.01312 24.984 7.51564 24.8118 7.98423C24.6397 8.45282 24.3876 8.87823 24.07 9.23605Z" stroke="#4D409B" stroke-width="2" stroke-linejoin="round"/>
<ellipse cx="2.03166" cy="1.67473" rx="2.03166" ry="1.67473" transform="matrix(0.847822 0.530281 -0.470317 0.882497 11.4214 8.98218)" fill="#4D409B"/>
<ellipse cx="2.03166" cy="1.72031" rx="2.03166" ry="1.72031" transform="matrix(-0.847822 0.530281 0.470317 0.882497 20.4458 8.90161)" fill="#4D409B"/>
</svg>
