<svg width="32" height="32" viewBox="0 0 32 32" fill="none" xmlns="http://www.w3.org/2000/svg">
<g clip-path="url(#clip0_2797_19494)">
<path d="M8.70184 6.83596C10.8648 6.45148 13.1809 6.67175 15.3034 8.07685L15.3047 8.07555C15.7489 8.36398 16.1507 8.68774 16.5143 9.03909C17.8826 7.96574 19.4619 7.32196 21.28 7.00654C23.4063 6.63776 25.6862 6.77475 27.8255 8.03518L28.2513 8.30211L28.2591 8.30732C30.0949 9.54095 31.3921 11.2957 31.8307 13.569L31.9063 14.0313L31.9089 14.0443L31.9102 14.056C32.3182 17.2416 31.3287 19.9694 29.1146 22.1719L29.1159 22.1732C27.5494 23.7366 25.6325 24.6998 23.5156 25.125L23.4909 25.1302L23.4675 25.1341C22.8979 25.2378 22.0381 25.2981 21.8763 25.3164L21.6979 25.3373L21.5182 25.3334C19.4221 25.288 17.333 24.6831 15.5456 23.1771L15.5365 23.1693C15.442 23.089 15.3497 23.0068 15.2591 22.9232C13.8243 24.139 12.0903 24.9381 10.0651 25.2058H10.0612C7.74438 25.5079 5.42147 25.0684 3.37892 23.5625L3.36981 23.5547C1.47619 22.1458 0.35292 20.2031 0.0703292 17.8802C-0.255283 15.1957 0.576167 12.7998 2.1172 10.8255C3.76754 8.70299 6.00532 7.31926 8.69663 6.83596H8.70184ZM13.8516 10.3112C12.4202 9.35604 10.8291 9.16563 9.16798 9.46096C7.13562 9.82594 5.47356 10.8516 4.21877 12.4675C3.05267 13.9616 2.48774 15.665 2.71746 17.5586C2.91198 19.1567 3.6536 20.4425 4.96095 21.4154C6.37487 22.4579 7.98413 22.7884 9.71616 22.5625C11.8194 22.2845 13.4813 21.2588 14.7539 19.6081C15.0426 19.234 15.2893 18.8404 15.4961 18.4297C15.7938 19.4883 16.3925 20.3983 17.263 21.138C18.5001 22.1805 19.9674 22.6319 21.5755 22.6667C22.0349 22.6146 22.5125 22.5973 22.9896 22.5104C24.6333 22.1803 26.0653 21.4494 27.2318 20.2852C28.8752 18.6519 29.5648 16.7402 29.2643 14.3946C29.0344 12.7269 28.1682 11.459 26.7722 10.5209C25.2346 9.49582 23.5383 9.32152 21.7357 9.63414C19.6325 9.99903 18.0767 10.8685 16.7865 12.5365C16.2338 13.2477 15.8219 14.0002 15.5664 14.7956H9.87632C9.61172 14.7956 9.48681 14.9686 9.43361 15.0729C9.18619 15.5247 8.76231 16.4289 8.53257 16.9675C8.40922 17.2624 8.49688 17.488 8.8672 17.4883H12.2787C12.102 17.7314 11.9611 17.9405 11.8021 18.1315C11.007 19.0174 9.99961 19.4335 8.79819 19.2774C7.40211 19.0863 6.42944 17.9406 6.41147 16.5508C6.3938 15.1435 7.0119 14.0133 8.21356 13.2487C9.22101 12.6058 10.3006 12.4496 11.4141 12.9883C11.7845 13.1619 11.9788 13.3535 12.2435 13.6485C12.4729 13.9086 12.492 13.8923 12.7565 13.8229C13.8519 13.545 14.6123 13.3365 15.7253 13.0586C15.9371 13.0066 16.0079 12.9191 15.9024 12.763C15.4605 11.7552 14.7883 10.9194 13.8516 10.3112ZM22.1237 12.763C23.8026 12.3808 25.4108 13.3531 25.7292 15.0729C25.7644 15.2464 25.765 15.4205 25.7826 15.6459C25.6942 17.1401 24.9338 18.2524 23.5378 18.9649C22.6013 19.4338 21.6293 19.487 20.6576 19.0703C19.385 18.5143 18.7132 17.1405 19.0313 15.7852C19.4202 14.1524 20.4804 13.128 22.1237 12.763Z" fill="#4D409B"/>
</g>
<defs>
<clipPath id="clip0_2797_19494">
<rect width="32" height="32" fill="white"/>
</clipPath>
</defs>
</svg>
