<svg width="48" height="48" viewBox="0 0 48 48" fill="none" xmlns="http://www.w3.org/2000/svg">
<rect width="48" height="48" rx="8" fill="#E9E6FD"/>
<path d="M22.1755 11.7454C23.1695 10.7519 24.7811 10.7515 25.7751 11.7454L36.2546 22.2239C37.2485 23.2179 37.2483 24.8303 36.2546 25.8245L25.824 36.2551C24.8296 37.2484 23.2185 37.2487 22.2244 36.2542L11.7458 25.7766H11.7449C10.7507 24.7824 10.7515 23.1705 11.7449 22.176L19.6375 14.2834L19.9998 13.9221L22.1755 11.7463V11.7454ZM23.7361 28.3469C23.6376 28.3873 23.5434 28.448 23.4607 28.5305C23.1342 28.8576 23.1335 29.3879 23.4617 29.717L23.5251 29.7747C23.854 30.0429 24.3398 30.0238 24.6472 29.717C24.9757 29.3882 24.9757 28.8571 24.6482 28.5295C24.5835 28.4649 24.5076 28.4125 24.4246 28.3713L24.0857 28.2024L23.7361 28.3469ZM29.6443 23.5325C29.4129 23.3007 29.0763 23.2325 28.7781 23.3352L28.4187 23.4583L28.2751 23.8079C28.1497 24.1128 28.2125 24.4744 28.4578 24.72H28.4568C28.7853 25.0483 29.316 25.0478 29.6443 24.72C29.9724 24.3915 29.9719 23.861 29.6443 23.5334V23.5325ZM24.6482 18.5364C24.4173 18.3053 24.0834 18.236 23.7869 18.3362L23.4255 18.4583L23.281 18.8049C23.1685 19.0746 23.2026 19.3866 23.3777 19.6252L23.4617 19.7229L23.4626 19.7239C23.5437 19.8052 23.6358 19.8654 23.7361 19.9065L23.8689 19.9602V18.5315L24.8191 19.4817L24.8464 19.4036C24.9491 19.1063 24.8807 18.7692 24.6482 18.5364Z" stroke="#4D409B" stroke-width="2"/>
</svg>
