<svg width="48" height="48" viewBox="0 0 48 48" fill="none" xmlns="http://www.w3.org/2000/svg">
<rect width="48" height="48" rx="8" fill="#E9E6FD"/>
<g clip-path="url(#clip0_2797_19533)">
<path d="M24 28C26.2091 28 28 26.2091 28 24C28 21.7909 26.2091 20 24 20C21.7909 20 20 21.7909 20 24C20 26.2091 21.7909 28 24 28Z" stroke="#4D409B" stroke-width="2" stroke-linecap="round" stroke-linejoin="round"/>
<path d="M33.8666 28C33.6891 28.4022 33.6362 28.8483 33.7146 29.2808C33.793 29.7134 33.9992 30.1125 34.3066 30.4267L34.3866 30.5067C34.6345 30.7544 34.8312 31.0485 34.9654 31.3722C35.0996 31.6959 35.1687 32.0429 35.1687 32.3934C35.1687 32.7438 35.0996 33.0908 34.9654 33.4145C34.8312 33.7383 34.6345 34.0324 34.3866 34.28C34.1389 34.528 33.8448 34.7247 33.5211 34.8589C33.1974 34.9931 32.8504 35.0621 32.4999 35.0621C32.1495 35.0621 31.8025 34.9931 31.4787 34.8589C31.155 34.7247 30.8609 34.528 30.6133 34.28L30.5333 34.2C30.219 33.8927 29.8199 33.6865 29.3874 33.608C28.9548 33.5296 28.5087 33.5826 28.1066 33.76C27.7122 33.9291 27.3759 34.2097 27.139 34.5674C26.9021 34.9251 26.775 35.3443 26.7733 35.7734V36C26.7733 36.7073 26.4923 37.3856 25.9922 37.8857C25.4921 38.3858 24.8138 38.6667 24.1066 38.6667C23.3993 38.6667 22.7211 38.3858 22.221 37.8857C21.7209 37.3856 21.4399 36.7073 21.4399 36V35.88C21.4296 35.4387 21.2867 35.0107 21.0299 34.6516C20.7731 34.2926 20.4142 34.0191 19.9999 33.8667C19.5978 33.6892 19.1517 33.6363 18.7191 33.7147C18.2866 33.7931 17.8875 33.9993 17.5733 34.3067L17.4933 34.3867C17.2456 34.6346 16.9515 34.8313 16.6278 34.9655C16.304 35.0997 15.957 35.1688 15.6066 35.1688C15.2561 35.1688 14.9091 35.0997 14.5854 34.9655C14.2617 34.8313 13.9676 34.6346 13.7199 34.3867C13.472 34.139 13.2753 33.8449 13.1411 33.5212C13.0069 33.1975 12.9378 32.8505 12.9378 32.5C12.9378 32.1496 13.0069 31.8026 13.1411 31.4789C13.2753 31.1551 13.472 30.861 13.7199 30.6134L13.7999 30.5334C14.1073 30.2191 14.3135 29.82 14.3919 29.3875C14.4703 28.955 14.4174 28.5089 14.2399 28.1067C14.0709 27.7123 13.7903 27.376 13.4325 27.1391C13.0748 26.9022 12.6556 26.7751 12.2266 26.7734H11.9999C11.2927 26.7734 10.6144 26.4924 10.1143 25.9923C9.6142 25.4922 9.33325 24.814 9.33325 24.1067C9.33325 23.3995 9.6142 22.7212 10.1143 22.2211C10.6144 21.721 11.2927 21.44 11.9999 21.44H12.1199C12.5612 21.4297 12.9893 21.2869 13.3483 21.0301C13.7074 20.7732 13.9809 20.4144 14.1333 20C14.3107 19.5979 14.3637 19.1518 14.2853 18.7193C14.2068 18.2867 14.0006 17.8876 13.6933 17.5734L13.6133 17.4934C13.3653 17.2457 13.1686 16.9516 13.0344 16.6279C12.9002 16.3042 12.8312 15.9571 12.8312 15.6067C12.8312 15.2563 12.9002 14.9093 13.0344 14.5855C13.1686 14.2618 13.3653 13.9677 13.6133 13.72C13.8609 13.4721 14.155 13.2754 14.4787 13.1412C14.8025 13.007 15.1495 12.9379 15.4999 12.9379C15.8504 12.9379 16.1974 13.007 16.5211 13.1412C16.8448 13.2754 17.1389 13.4721 17.3866 13.72L17.4666 13.8C17.7808 14.1074 18.1799 14.3136 18.6125 14.392C19.045 14.4705 19.4911 14.4175 19.8933 14.24H19.9999C20.3943 14.071 20.7306 13.7904 20.9675 13.4327C21.2044 13.0749 21.3315 12.6558 21.3333 12.2267V12C21.3333 11.2928 21.6142 10.6145 22.1143 10.1144C22.6144 9.61433 23.2927 9.33337 23.9999 9.33337C24.7072 9.33337 25.3854 9.61433 25.8855 10.1144C26.3856 10.6145 26.6666 11.2928 26.6666 12V12.12C26.6683 12.5491 26.7954 12.9683 27.0323 13.326C27.2692 13.6837 27.6056 13.9644 27.9999 14.1334C28.4021 14.3109 28.8482 14.3638 29.2807 14.2854C29.7132 14.207 30.1123 14.0008 30.4266 13.6934L30.5066 13.6134C30.7542 13.3654 31.0484 13.1687 31.3721 13.0345C31.6958 12.9004 32.0428 12.8313 32.3933 12.8313C32.7437 12.8313 33.0907 12.9004 33.4144 13.0345C33.7382 13.1687 34.0323 13.3654 34.2799 13.6134C34.5279 13.861 34.7245 14.1551 34.8587 14.4789C34.9929 14.8026 35.062 15.1496 35.062 15.5C35.062 15.8505 34.9929 16.1975 34.8587 16.5212C34.7245 16.8449 34.5279 17.139 34.2799 17.3867L34.1999 17.4667C33.8925 17.7809 33.6863 18.1801 33.6079 18.6126C33.5295 19.0451 33.5824 19.4912 33.7599 19.8934V20C33.9289 20.3944 34.2096 20.7307 34.5673 20.9676C34.925 21.2045 35.3442 21.3317 35.7733 21.3334H35.9999C36.7072 21.3334 37.3854 21.6143 37.8855 22.1144C38.3856 22.6145 38.6666 23.2928 38.6666 24C38.6666 24.7073 38.3856 25.3856 37.8855 25.8857C37.3854 26.3858 36.7072 26.6667 35.9999 26.6667H35.8799C35.4509 26.6684 35.0317 26.7956 34.674 27.0325C34.3162 27.2694 34.0356 27.6057 33.8666 28V28Z" stroke="#4D409B" stroke-width="2" stroke-linecap="round" stroke-linejoin="round"/>
</g>
<defs>
<clipPath id="clip0_2797_19533">
<rect width="32" height="32" fill="white" transform="translate(8 8)"/>
</clipPath>
</defs>
</svg>
