<svg width="48" height="48" viewBox="0 0 48 48" fill="none" xmlns="http://www.w3.org/2000/svg">
<rect width="48" height="48" rx="8" fill="#E9E6FD"/>
<g clip-path="url(#clip0_2797_9761)">
<path d="M24 28C26.2091 28 28 26.2091 28 24C28 21.7909 26.2091 20 24 20C21.7909 20 20 21.7909 20 24C20 26.2091 21.7909 28 24 28Z" stroke="#4D409B" stroke-width="2" stroke-linecap="round" stroke-linejoin="round"/>
<path d="M33.8666 27.9999C33.6892 28.4021 33.6362 28.8482 33.7146 29.2807C33.7931 29.7132 33.9993 30.1123 34.3066 30.4266L34.3866 30.5066C34.6346 30.7542 34.8313 31.0484 34.9655 31.3721C35.0997 31.6958 35.1687 32.0428 35.1687 32.3933C35.1687 32.7437 35.0997 33.0907 34.9655 33.4144C34.8313 33.7382 34.6346 34.0323 34.3866 34.2799C34.139 34.5279 33.8449 34.7245 33.5212 34.8587C33.1974 34.9929 32.8504 35.062 32.5 35.062C32.1495 35.062 31.8025 34.9929 31.4788 34.8587C31.1551 34.7245 30.861 34.5279 30.6133 34.2799L30.5333 34.1999C30.2191 33.8925 29.82 33.6863 29.3874 33.6079C28.9549 33.5295 28.5088 33.5824 28.1066 33.7599C27.7123 33.9289 27.376 34.2096 27.1391 34.5673C26.9022 34.925 26.775 35.3442 26.7733 35.7733V35.9999C26.7733 36.7072 26.4924 37.3854 25.9923 37.8855C25.4922 38.3856 24.8139 38.6666 24.1066 38.6666C23.3994 38.6666 22.7211 38.3856 22.221 37.8855C21.7209 37.3854 21.44 36.7072 21.44 35.9999V35.8799C21.4297 35.4386 21.2868 35.0106 21.03 34.6515C20.7732 34.2925 20.4143 34.019 20 33.8666C19.5978 33.6891 19.1517 33.6362 18.7192 33.7146C18.2867 33.793 17.8876 33.9992 17.5733 34.3066L17.4933 34.3866C17.2457 34.6345 16.9515 34.8312 16.6278 34.9654C16.3041 35.0996 15.9571 35.1687 15.6066 35.1687C15.2562 35.1687 14.9092 35.0996 14.5855 34.9654C14.2617 34.8312 13.9676 34.6345 13.72 34.3866C13.472 34.1389 13.2754 33.8448 13.1412 33.5211C13.007 33.1974 12.9379 32.8504 12.9379 32.4999C12.9379 32.1495 13.007 31.8025 13.1412 31.4787C13.2754 31.155 13.472 30.8609 13.72 30.6133L13.8 30.5333C14.1074 30.219 14.3136 29.8199 14.392 29.3874C14.4704 28.9548 14.4175 28.5087 14.24 28.1066C14.071 27.7122 13.7903 27.3759 13.4326 27.139C13.0749 26.9021 12.6557 26.775 12.2266 26.7733H12C11.2927 26.7733 10.6145 26.4923 10.1144 25.9922C9.61426 25.4921 9.33331 24.8138 9.33331 24.1066C9.33331 23.3993 9.61426 22.7211 10.1144 22.221C10.6145 21.7209 11.2927 21.4399 12 21.4399H12.12C12.5613 21.4296 12.9893 21.2867 13.3484 21.0299C13.7074 20.7731 13.9809 20.4142 14.1333 19.9999C14.3108 19.5978 14.3637 19.1517 14.2853 18.7191C14.2069 18.2866 14.0007 17.8875 13.6933 17.5733L13.6133 17.4933C13.3654 17.2456 13.1687 16.9515 13.0345 16.6278C12.9003 16.304 12.8312 15.957 12.8312 15.6066C12.8312 15.2561 12.9003 14.9091 13.0345 14.5854C13.1687 14.2617 13.3654 13.9676 13.6133 13.7199C13.861 13.472 14.1551 13.2753 14.4788 13.1411C14.8025 13.0069 15.1495 12.9378 15.5 12.9378C15.8504 12.9378 16.1974 13.0069 16.5212 13.1411C16.8449 13.2753 17.139 13.472 17.3866 13.7199L17.4666 13.7999C17.7809 14.1073 18.18 14.3135 18.6125 14.3919C19.0451 14.4703 19.4912 14.4174 19.8933 14.2399H20C20.3943 14.0709 20.7307 13.7903 20.9676 13.4325C21.2045 13.0748 21.3316 12.6556 21.3333 12.2266V11.9999C21.3333 11.2927 21.6143 10.6144 22.1144 10.1143C22.6145 9.6142 23.2927 9.33325 24 9.33325C24.7072 9.33325 25.3855 9.6142 25.8856 10.1143C26.3857 10.6144 26.6666 11.2927 26.6666 11.9999V12.1199C26.6684 12.549 26.7955 12.9682 27.0324 13.3259C27.2693 13.6836 27.6056 13.9642 28 14.1333C28.4021 14.3107 28.8482 14.3637 29.2808 14.2853C29.7133 14.2068 30.1124 14.0006 30.4266 13.6933L30.5066 13.6133C30.7543 13.3653 31.0484 13.1686 31.3721 13.0344C31.6959 12.9002 32.0429 12.8312 32.3933 12.8312C32.7438 12.8312 33.0908 12.9002 33.4145 13.0344C33.7382 13.1686 34.0323 13.3653 34.28 13.6133C34.5279 13.8609 34.7246 14.155 34.8588 14.4787C34.993 14.8025 35.0621 15.1495 35.0621 15.4999C35.0621 15.8504 34.993 16.1974 34.8588 16.5211C34.7246 16.8448 34.5279 17.1389 34.28 17.3866L34.2 17.4666C33.8926 17.7808 33.6864 18.1799 33.608 18.6125C33.5295 19.045 33.5825 19.4911 33.76 19.8933V19.9999C33.929 20.3943 34.2096 20.7306 34.5674 20.9675C34.9251 21.2044 35.3443 21.3315 35.7733 21.3333H36C36.7072 21.3333 37.3855 21.6142 37.8856 22.1143C38.3857 22.6144 38.6666 23.2927 38.6666 23.9999C38.6666 24.7072 38.3857 25.3854 37.8856 25.8855C37.3855 26.3856 36.7072 26.6666 36 26.6666H35.88C35.4509 26.6683 35.0317 26.7954 34.674 27.0323C34.3163 27.2692 34.0357 27.6056 33.8666 27.9999V27.9999Z" stroke="#4D409B" stroke-width="2" stroke-linecap="round" stroke-linejoin="round"/>
</g>
<defs>
<clipPath id="clip0_2797_9761">
<rect width="32" height="32" fill="white" transform="translate(8 8)"/>
</clipPath>
</defs>
</svg>
