<svg width="48" height="48" viewBox="0 0 48 48" fill="none" xmlns="http://www.w3.org/2000/svg">
<rect width="48" height="48" rx="8" fill="#E9E6FD"/>
<mask id="path-2-inside-1_2797_9742" fill="white">
<rect x="9.33333" y="17.3333" width="5.33333" height="5.33333" rx="1"/>
</mask>
<rect x="9.33333" y="17.3333" width="5.33333" height="5.33333" rx="1" stroke="#4D409B" stroke-width="4" mask="url(#path-2-inside-1_2797_9742)"/>
<mask id="path-3-inside-2_2797_9742" fill="white">
<rect x="16" y="17.3333" width="5.33333" height="5.33333" rx="1"/>
</mask>
<rect x="16" y="17.3333" width="5.33333" height="5.33333" rx="1" stroke="#4D409B" stroke-width="4" mask="url(#path-3-inside-2_2797_9742)"/>
<mask id="path-4-inside-3_2797_9742" fill="white">
<rect x="22.6667" y="17.3333" width="5.33333" height="5.33333" rx="1"/>
</mask>
<rect x="22.6667" y="17.3333" width="5.33333" height="5.33333" rx="1" stroke="#4D409B" stroke-width="4" mask="url(#path-4-inside-3_2797_9742)"/>
<mask id="path-5-inside-4_2797_9742" fill="white">
<rect x="16" y="10.6667" width="5.33333" height="5.33333" rx="1"/>
</mask>
<rect x="16" y="10.6667" width="5.33333" height="5.33333" rx="1" stroke="#4D409B" stroke-width="4" mask="url(#path-5-inside-4_2797_9742)"/>
<mask id="path-6-inside-5_2797_9742" fill="white">
<rect x="22.6667" y="10.6667" width="5.33333" height="5.33333" rx="1"/>
</mask>
<rect x="22.6667" y="10.6667" width="5.33333" height="5.33333" rx="1" stroke="#4D409B" stroke-width="4" mask="url(#path-6-inside-5_2797_9742)"/>
<path d="M31.9999 19.3333C30.3999 19.3333 30 23.111 30 25.3333H10C9.77778 29.3333 11.7333 35.9999 21.3333 35.9999C27.9999 35.9999 32 31.9999 33.3333 27.9999C35.3333 27.3333 39.3333 25.9999 38.6666 23.9999C37.9999 22.6666 35.3333 22.6666 34.6667 22.6666C34.4444 21.3333 33.5999 19.3333 31.9999 19.3333Z" stroke="#4D409B" stroke-width="2" stroke-linejoin="round"/>
</svg>
