<svg width="48" height="48" viewBox="0 0 48 48" fill="none" xmlns="http://www.w3.org/2000/svg">
<rect width="48" height="48" rx="8" fill="#E9E6FD"/>
<g clip-path="url(#clip0_2781_18894)">
<path d="M23.3346 25.1828C23.3346 25.1828 21.5507 21.7454 21.6166 19.2336C21.6646 17.4387 25.7117 15.6644 27.3006 13.0881C28.8868 10.5104 27.1029 8 27.1029 8C27.1029 8 27.4998 9.85118 26.4423 11.7656C25.3849 13.6827 21.4819 14.8074 19.9645 18.1116C18.447 21.4158 23.3346 25.1828 23.3346 25.1828Z" fill="#4D409B"/>
<path d="M30.0116 14.7402C30.0116 14.7402 23.9319 17.0543 23.9319 19.6965C23.9319 22.3414 25.5826 23.1998 25.8491 24.0581C26.1128 24.9192 25.3863 26.3721 25.3863 26.3721C25.3863 26.3721 27.7649 24.72 27.3666 22.8029C26.9697 20.8858 25.1199 20.2898 26.1787 18.3754C26.8859 17.0914 30.0116 14.7402 30.0116 14.7402Z" fill="#4D409B"/>
<path d="M22.6754 28.6749C28.2936 28.4744 30.3426 26.7015 30.3426 26.7015C26.7088 27.6917 17.0586 27.6271 16.9913 26.9006C16.9268 26.1742 19.9646 25.5781 19.9646 25.5781C19.9646 25.5781 15.2075 25.5781 14.8106 26.7674C14.4136 27.9567 17.0613 28.8713 22.6754 28.6749Z" fill="#4D409B"/>
<path d="M30.8039 31.4601C30.8039 31.4601 36.3026 30.2874 35.7588 27.3004C35.0996 23.6639 31.2653 25.7129 31.2653 25.7129C31.2653 25.7129 33.9776 25.7129 34.2399 27.3636C34.505 29.0157 30.8039 31.4601 30.8039 31.4601Z" fill="#4D409B"/>
<path d="M28.0944 29.8754C28.0944 29.8754 26.7088 30.2393 24.6557 30.47C21.9036 30.7789 18.5761 30.5345 18.311 30.0717C18.0501 29.6089 18.7738 29.3452 18.7738 29.3452C15.4683 30.139 17.2769 31.5247 21.151 31.7911C24.4716 32.0177 29.4141 30.7996 29.4141 30.7996L28.0944 29.8754Z" fill="#4D409B"/>
<path d="M19.5703 32.7622C19.5703 32.7622 18.0707 32.8048 17.9828 33.5986C17.8963 34.3869 18.9057 35.0955 22.608 35.3152C26.3091 35.5349 28.9101 34.3031 28.9101 34.3031L27.236 33.2869C27.236 33.2869 26.1772 33.5093 24.5471 33.7291C22.9156 33.9502 19.5702 33.5519 19.4384 33.2457C19.3039 32.9366 19.5703 32.7622 19.5703 32.7622Z" fill="#4D409B"/>
<path d="M33.9749 36.3313C34.5476 35.7133 33.7977 35.2285 33.7977 35.2285C33.7977 35.2285 34.0614 35.5375 33.7126 35.8891C33.3596 36.2407 30.142 37.121 24.9866 37.386C19.8326 37.651 14.2364 36.9012 14.0592 36.2407C13.8876 35.5801 16.9253 35.0527 16.9253 35.0527C16.5738 35.0967 12.344 35.1846 12.2094 36.3313C12.0775 37.4752 14.0592 38.4008 21.9928 38.4008C29.9223 38.3995 33.405 36.9451 33.9749 36.3313Z" fill="#4D409B"/>
<path d="M30.8918 38.9296C27.4105 39.6327 16.8388 39.1892 16.8388 39.1892C16.8388 39.1892 23.7095 40.8207 31.5524 39.4556C35.3015 38.8019 35.5198 36.9878 35.5198 36.9878C35.5198 36.9878 34.3732 38.2224 30.8918 38.9296Z" fill="#4D409B"/>
</g>
<defs>
<clipPath id="clip0_2781_18894">
<rect width="32" height="32" fill="white" transform="translate(8 8)"/>
</clipPath>
</defs>
</svg>
