<svg width="48" height="48" viewBox="0 0 48 48" fill="none" xmlns="http://www.w3.org/2000/svg">
<rect width="48" height="48" rx="8" fill="#E9E6FD"/>
<path d="M22.1754 11.7456C23.1694 10.7521 24.7809 10.7518 25.775 11.7456L36.2545 22.2241C37.2484 23.2181 37.2482 24.8306 36.2545 25.8247L25.8239 36.2554C24.8295 37.2487 23.2183 37.2489 22.2242 36.2544L11.7457 25.7769H11.7448C10.7505 24.7826 10.7514 23.1707 11.7448 22.1763L19.6373 14.2837L19.9996 13.9224L22.1754 11.7466V11.7456ZM23.736 28.3472C23.6375 28.3875 23.5432 28.4482 23.4606 28.5308C23.1341 28.8578 23.1333 29.3882 23.4615 29.7173L23.525 29.7749C23.8539 30.0432 24.3396 30.0241 24.6471 29.7173C24.9756 29.3884 24.9756 28.8573 24.6481 28.5298C24.5834 28.4651 24.5075 28.4127 24.4244 28.3716L24.0856 28.2026L23.736 28.3472ZM29.6442 23.5327C29.4127 23.301 29.0762 23.2327 28.778 23.3354L28.4186 23.4585L28.275 23.8081C28.1495 24.1131 28.2124 24.4746 28.4576 24.7202H28.4567C28.7852 25.0485 29.3159 25.048 29.6442 24.7202C29.9723 24.3917 29.9717 23.8613 29.6442 23.5337V23.5327ZM24.6481 18.5366C24.4171 18.3056 24.0833 18.2362 23.7867 18.3364L23.4254 18.4585L23.2809 18.8052C23.1684 19.0749 23.2024 19.3869 23.3776 19.6255L23.4615 19.7231L23.4625 19.7241C23.5436 19.8054 23.6357 19.8657 23.736 19.9067L23.8688 19.9604V18.5317L24.819 19.4819L24.8463 19.4038C24.949 19.1065 24.8805 18.7694 24.6481 18.5366Z" stroke="#4D409B" stroke-width="2"/>
</svg>
