<svg width="48" height="48" viewBox="0 0 48 48" fill="none" xmlns="http://www.w3.org/2000/svg">
<rect width="48" height="48" rx="8" fill="white"/>
<path fill-rule="evenodd" clip-rule="evenodd" d="M24.1627 34C18.55 34 14 29.5228 14 24C14 18.4772 18.55 14 24.1627 14C27.9184 14 31.2278 16.0553 32.9871 19.0365L28.9651 21.3228C28.0173 19.6557 26.2422 18.5475 24.1627 18.5475C21.1024 18.5475 18.6216 20.9887 18.6216 24C18.6216 27.0113 21.1024 29.4525 24.1627 29.4525C26.2285 29.4525 28.0303 28.34 28.9832 26.6908L33 28.9413C31.2515 31.9627 27.9489 34 24.1627 34Z" stroke="#4D409B" stroke-width="2" stroke-linejoin="round"/>
<path d="M37.4598 23.3981L37.2565 24.4574H38.3725V25.3981H37.0878L36.7547 27.252H35.8031L36.1405 25.3981H35.3014L34.9726 27.252H34.0426L34.3627 25.3981H33.3333V24.4574H34.5314L34.7347 23.3981H33.6447V22.4437H34.8948L35.2278 20.5853H36.1751L35.842 22.4437H36.6985L37.0359 20.5853H37.9659L37.6285 22.4437H38.6666V23.3981H37.4598ZM35.47 24.4574H36.3178L36.5211 23.3981H35.6733L35.47 24.4574Z" fill="#4D409B"/>
</svg>
