<svg width="48" height="48" viewBox="0 0 48 48" fill="none" xmlns="http://www.w3.org/2000/svg">
<rect width="48" height="48" rx="8" fill="#E9E6FD"/>
<path d="M32.07 17.2358C33.1881 19.0212 33.8462 21.1955 33.8462 23.5378C33.8462 26.437 32.8386 29.0783 31.1959 31.0473L31.1773 31.0684C30.9749 31.3096 30.7638 31.5409 30.5428 31.7617L26.8478 35.7784L25.9277 34.7595L23.9541 37.3332L22.0264 34.8178L21.1567 35.784L17.4709 31.7716C17.2412 31.5459 17.0202 31.3046 16.8134 31.0578L16.8041 31.0467C15.1615 29.0832 14.1539 26.442 14.1539 23.5428C14.1516 21.2812 14.7742 19.0756 15.9344 17.2358C15.3179 16.5431 14.9356 15.5769 14.9356 14.5102C14.9356 12.3893 16.4404 10.6715 18.2997 10.6715C18.95 10.6722 19.5862 10.8871 20.131 11.2899C20.6757 11.6927 21.1056 12.2661 21.3684 12.9406C22.2058 12.6777 23.0893 12.5412 24 12.5412C24.8922 12.5393 25.7805 12.6736 26.641 12.9406C27.1656 11.6011 28.3433 10.6665 29.7097 10.6665C31.569 10.6665 33.0733 12.3837 33.0733 14.5053C33.0729 15.0129 32.9841 15.5154 32.8119 15.984C32.6397 16.4526 32.3876 16.878 32.07 17.2358Z" stroke="#4D409B" stroke-width="2" stroke-linejoin="round"/>
<ellipse cx="2.03166" cy="1.67473" rx="2.03166" ry="1.67473" transform="matrix(0.847822 0.530281 -0.470317 0.882497 19.4214 16.9819)" fill="#4D409B"/>
<ellipse cx="2.03166" cy="1.72031" rx="2.03166" ry="1.72031" transform="matrix(-0.847822 0.530281 0.470317 0.882497 28.4457 16.9019)" fill="#4D409B"/>
</svg>
