<svg width="48" height="48" viewBox="0 0 48 48" fill="none" xmlns="http://www.w3.org/2000/svg">
<rect width="48" height="48" rx="8" fill="#E9E6FD"/>
<path d="M32.07 17.2361C33.1881 19.0215 33.8461 21.1957 33.8461 23.5381C33.8461 26.4373 32.8385 29.0785 31.1959 31.0475L31.1773 31.0686C30.9749 31.3098 30.7637 31.5412 30.5427 31.7619L26.8477 35.7787L25.9276 34.7598L23.954 37.3334L22.0264 34.8181L21.1566 35.7843L17.4709 31.7719C17.2411 31.5461 17.0201 31.3049 16.8134 31.0581L16.8041 31.0469C15.1614 29.0835 14.1538 26.4423 14.1538 23.543C14.1515 21.2814 14.7742 19.0758 15.9343 17.2361C15.3178 16.5433 14.9355 15.5771 14.9355 14.5105C14.9355 12.3895 16.4403 10.6717 18.2996 10.6717C18.95 10.6725 19.5861 10.8873 20.1309 11.2901C20.6756 11.6929 21.1055 12.2664 21.3683 12.9409C22.2058 12.6779 23.0892 12.5415 24 12.5415C24.8921 12.5395 25.7804 12.6738 26.6409 12.9409C27.1655 11.6013 28.3432 10.6667 29.7096 10.6667C31.5689 10.6667 33.0732 12.384 33.0732 14.5055C33.0728 15.0131 32.984 15.5156 32.8118 15.9842C32.6397 16.4528 32.3876 16.8782 32.07 17.2361Z" stroke="#4D409B" stroke-width="2" stroke-linejoin="round"/>
<ellipse cx="2.03166" cy="1.67473" rx="2.03166" ry="1.67473" transform="matrix(0.847822 0.530281 -0.470317 0.882497 19.4214 16.9822)" fill="#4D409B"/>
<ellipse cx="2.03166" cy="1.72031" rx="2.03166" ry="1.72031" transform="matrix(-0.847822 0.530281 0.470317 0.882497 28.4458 16.9016)" fill="#4D409B"/>
</svg>
