<svg width="48" height="48" viewBox="0 0 48 48" fill="none" xmlns="http://www.w3.org/2000/svg">
<rect width="48" height="48" rx="8" fill="#E9E6FD"/>
<path d="M18.51 18.7264V15.4182C18.51 13.6703 18.9773 12.7226 21.551 12.2697C22.4246 12.1158 23.4175 12.0275 24.4572 12.0227C25.4969 12.0179 26.581 12.0965 27.6257 12.2697C29.2762 12.5437 30.6667 13.7767 30.6667 15.4182V21.1856C30.6667 22.8769 29.3167 24.0895 27.6257 24.0895L21.551 24.0895C19.4884 24.0895 17.7516 26.0269 17.7516 28.0261V30.7934H15.6605C13.8929 30.7934 12.8605 29.5157 12.4281 27.7226C11.845 25.3136 11.8697 23.8739 12.4281 21.5668C12.9123 19.5541 14.46 18.7264 16.2275 18.7264L18.51 18.7264ZM18.51 18.7264L24.5919 18.7264" stroke="#4D409B" stroke-width="2" stroke-linecap="round"/>
<path d="M29.932 29.4523L29.932 32.8944C29.932 34.505 28.5329 35.3238 27.114 35.7306C24.9794 36.344 23.2686 36.2501 21.4846 35.7306C19.9948 35.2967 18.6666 34.407 18.6666 32.8944V27.5796C18.6666 26.0503 19.9426 24.0892 21.4846 24.0892L27.114 24.0892C28.9899 24.0892 30.6349 23.1261 30.6349 21.2046L30.6666 18.7261H32.75C34.3901 18.7261 35.1632 19.941 35.568 21.5558C36.1314 23.7987 36.1564 25.48 35.568 27.2284C34.9983 28.9266 34.388 29.3877 32.75 29.3877H29.932H24.3026" stroke="#4D409B" stroke-width="2" stroke-linecap="round"/>
</svg>
