<svg width="48" height="48" viewBox="0 0 48 48" fill="none" xmlns="http://www.w3.org/2000/svg">
<rect width="48" height="48" rx="8" fill="#E9E6FD"/>
<g clip-path="url(#clip0_2797_9752)">
<path d="M16.7018 14.836C18.8648 14.4515 21.1809 14.6717 23.3034 16.0768L23.3047 16.0755C23.7489 16.364 24.1507 16.6877 24.5143 17.0391C25.8826 15.9657 27.4619 15.322 29.28 15.0065C31.4063 14.6378 33.6862 14.7747 35.8255 16.0352L36.2513 16.3021L36.2591 16.3073C38.0949 17.541 39.3921 19.2957 39.8307 21.569L39.9063 22.0313L39.9089 22.0443L39.9102 22.056C40.3182 25.2416 39.3287 27.9694 37.1146 30.1719L37.1159 30.1732C35.5494 31.7366 33.6325 32.6998 31.5156 33.125L31.4909 33.1302L31.4675 33.1341C30.8979 33.2378 30.0381 33.2981 29.8763 33.3164L29.6979 33.3373L29.5182 33.3334C27.4221 33.288 25.333 32.6831 23.5456 31.1771L23.5365 31.1693C23.442 31.089 23.3497 31.0068 23.2591 30.9232C21.8243 32.139 20.0903 32.9381 18.0651 33.2058H18.0612C15.7444 33.5079 13.4215 33.0684 11.3789 31.5625L11.3698 31.5547C9.47619 30.1458 8.35292 28.2031 8.07033 25.8802C7.74472 23.1957 8.57617 20.7998 10.1172 18.8255C11.7675 16.703 14.0053 15.3193 16.6966 14.836H16.7018ZM21.8516 18.3112C20.4202 17.356 18.8291 17.1656 17.168 17.461C15.1356 17.8259 13.4736 18.8516 12.2188 20.4675C11.0527 21.9616 10.4877 23.665 10.7175 25.5586C10.912 27.1567 11.6536 28.4425 12.961 29.4154C14.3749 30.4579 15.9841 30.7884 17.7162 30.5625C19.8194 30.2845 21.4813 29.2588 22.7539 27.6081C23.0426 27.234 23.2893 26.8404 23.4961 26.4297C23.7938 27.4883 24.3925 28.3983 25.263 29.138C26.5001 30.1805 27.9674 30.6319 29.5755 30.6667C30.0349 30.6146 30.5125 30.5973 30.9896 30.5104C32.6333 30.1803 34.0653 29.4494 35.2318 28.2852C36.8752 26.6519 37.5648 24.7402 37.2643 22.3946C37.0344 20.7269 36.1682 19.459 34.7722 18.5209C33.2346 17.4958 31.5383 17.3215 29.7357 17.6341C27.6325 17.999 26.0767 18.8685 24.7865 20.5365C24.2338 21.2477 23.8219 22.0002 23.5664 22.7956H17.8763C17.6117 22.7956 17.4868 22.9686 17.4336 23.0729C17.1862 23.5247 16.7623 24.4289 16.5326 24.9675C16.4092 25.2624 16.4969 25.488 16.8672 25.4883H20.2787C20.102 25.7314 19.9611 25.9405 19.8021 26.1315C19.007 27.0174 17.9996 27.4335 16.7982 27.2774C15.4021 27.0863 14.4294 25.9406 14.4115 24.5508C14.3938 23.1435 15.0119 22.0133 16.2136 21.2487C17.221 20.6058 18.3006 20.4496 19.4141 20.9883C19.7845 21.1619 19.9788 21.3535 20.2435 21.6485C20.4729 21.9086 20.492 21.8923 20.7565 21.8229C21.8519 21.545 22.6123 21.3365 23.7253 21.0586C23.9371 21.0066 24.0079 20.9191 23.9024 20.763C23.4605 19.7552 22.7883 18.9194 21.8516 18.3112ZM30.1237 20.763C31.8026 20.3808 33.4108 21.3531 33.7292 23.0729C33.7644 23.2464 33.765 23.4205 33.7826 23.6459C33.6942 25.1401 32.9338 26.2524 31.5378 26.9649C30.6013 27.4338 29.6293 27.487 28.6576 27.0703C27.385 26.5143 26.7132 25.1405 27.0313 23.7852C27.4202 22.1524 28.4804 21.128 30.1237 20.763Z" fill="#4D409B"/>
</g>
<defs>
<clipPath id="clip0_2797_9752">
<rect width="32" height="32" fill="white" transform="translate(8 8)"/>
</clipPath>
</defs>
</svg>
