<svg width="48" height="48" viewBox="0 0 48 48" fill="none" xmlns="http://www.w3.org/2000/svg">
<rect width="48" height="48" rx="8" fill="white"/>
<path fill-rule="evenodd" clip-rule="evenodd" d="M24.1627 34C18.55 34 14 29.5228 14 24C14 18.4772 18.55 14 24.1627 14C27.9184 14 31.2278 16.0553 32.9871 19.0365L28.9651 21.3228C28.0173 19.6557 26.2422 18.5475 24.1627 18.5475C21.1024 18.5475 18.6216 20.9887 18.6216 24C18.6216 27.0113 21.1024 29.4525 24.1627 29.4525C26.2285 29.4525 28.0303 28.34 28.9832 26.6908L33 28.9413C31.2515 31.9627 27.9489 34 24.1627 34Z" stroke="#4D409B" stroke-width="2" stroke-linejoin="round"/>
<path d="M37.4597 23.398L37.2564 24.4574H38.3724V25.398H37.0877L36.7546 27.2519H35.803L36.1404 25.398H35.3013L34.9725 27.2519H34.0426L34.3626 25.398H33.3332V24.4574H34.5313L34.7346 23.398H33.6446V22.4437H34.8947L35.2277 20.5852H36.175L35.842 22.4437H36.6984L37.0358 20.5852H37.9658L37.6284 22.4437H38.6665V23.398H37.4597ZM35.47 24.4574H36.3178L36.5211 23.398H35.6733L35.47 24.4574Z" fill="#4D409B"/>
</svg>
