<svg width="541" height="356" viewBox="0 0 541 356" fill="none" xmlns="http://www.w3.org/2000/svg">
<g opacity="0.3">
<path d="M364.563 164.212H485.399C513.316 164.212 535.939 142.971 535.939 116.795V64.4989C535.939 38.3234 513.316 17.0815 485.399 17.0815H364.563C336.646 17.0815 314.023 38.3234 314.023 64.4989V116.795C314.023 142.971 336.646 164.212 364.563 164.212Z" fill="#E9E6FD"/>
<path d="M491.198 203.053H358.793C331.286 203.053 308.991 225.446 308.991 253.074V422.102C308.991 432.462 301.214 441.535 290.926 442.165C279.765 442.85 270.486 433.97 270.486 422.842V34.1621C270.486 13.5235 252.367 -2.56525 232.036 0.340053C100.832 19.0875 0 132.394 0 269.327C0.0272888 419.224 121.271 541 270.514 541C419.756 541 541 419.361 541 269.272V253.046C541 225.419 518.705 203.026 491.198 203.026V203.053Z" fill="#E9E6FD"/>
</g>
</svg>
